<svg width="233.3329336736386" height="299.5" viewBox="0 -5 220 282.3861979644929" class="css-1j8o68f"><defs id="SvgjsDefs1115"></defs><g id="SvgjsG1116" featurekey="symbolFeature-0" transform="matrix(1.9412920998341425,0,0,1.9412920998341425,13.435398711013704,-31.085142478663172)" fill="#e99b9b"><path xmlns="http://www.w3.org/2000/svg" fill="#e99b9b" d="M62.188,70.625c0-6.323,2.677-11.23,5.51-16.426c2.823-5.173,5.74-10.521,5.74-17.324  c0-12.924-10.514-23.438-23.438-23.438S26.562,23.951,26.562,36.875c0,6.802,2.917,12.151,5.74,17.324  c2.833,5.196,5.51,10.104,5.51,16.426c0,0.518,0.419,0.938,0.938,0.938h22.5C61.768,71.562,62.188,71.143,62.188,70.625z   M33.947,53.301c-2.833-5.196-5.51-10.104-5.51-16.426c0-11.889,9.673-21.562,21.562-21.562s21.562,9.673,21.562,21.562  c0,6.323-2.677,11.23-5.51,16.426c-2.141,3.922-4.312,7.956-5.25,12.636H39.197C38.259,61.257,36.088,57.224,33.947,53.301z   M39.669,69.688c-0.025-0.641-0.093-1.26-0.168-1.875h20.998c-0.075,0.615-0.143,1.234-0.168,1.875H39.669z"></path><path xmlns="http://www.w3.org/2000/svg" fill="#e99b9b" d="M59.375,73.438h-18.75c-0.518,0-0.938,0.419-0.938,0.938s0.419,0.938,0.938,0.938h18.75  c0.518,0,0.938-0.419,0.938-0.938S59.893,73.438,59.375,73.438z"></path><path xmlns="http://www.w3.org/2000/svg" fill="#e99b9b" d="M60.312,78.125c0-0.518-0.419-0.938-0.938-0.938h-18.75c-0.518,0-0.938,0.419-0.938,0.938  s0.419,0.938,0.938,0.938h18.75C59.893,79.062,60.312,78.643,60.312,78.125z"></path><path xmlns="http://www.w3.org/2000/svg" fill="#e99b9b" d="M42.5,80.879c-0.518,0-0.938,0.419-0.938,0.938c0,4.746,6.172,4.746,8.496,4.746s8.496,0,8.496-4.746  c0-0.518-0.419-0.938-0.938-0.938H42.5z M50.059,84.688c-4.534,0-6.021-0.877-6.456-1.934h12.912  C56.079,83.811,54.592,84.688,50.059,84.688z"></path><ellipse xmlns="http://www.w3.org/2000/svg" fill="#e99b9b" cx="40.625" cy="35.938" rx="1.875" ry="2.812"></ellipse><ellipse xmlns="http://www.w3.org/2000/svg" fill="#e99b9b" cx="59.375" cy="35.938" rx="1.875" ry="2.812"></ellipse><path xmlns="http://www.w3.org/2000/svg" fill="#e99b9b" d="M50,50c9.133,0,11.102-6.713,11.182-6.998c0.156-0.564,0.041-1.17-0.315-1.637  c-0.354-0.465-0.906-0.74-1.492-0.74h-18.75c-0.586,0-1.137,0.274-1.492,0.74c-0.354,0.467-0.471,1.073-0.313,1.637  C38.898,43.287,40.869,50,50,50z"></path></g><g id="SvgjsG1117" featurekey="nameFeature-0" transform="matrix(4.122834440099005,0,0,4.122834440099005,-8.246293060006977,113.04556382139803)" fill="#ffffff"><path d="M7.934 16.444 c-0.34836 0.0076952 -0.6988 0.00078124 -1.0143 0.00078124 c-0.34836 1.1548 -0.4476 6.376 -0.16648 7.8692 l3.5556 0 c0.32406 0 0.64812 -0.0073048 0.97176 0.0016016 c0.90572 0.025508 1.2237 0.35199 1.2083 1.2484 c-0.0076952 0.45204 -0.051056 0.90324 -0.049844 1.3553 c0.0028516 0.95996 -0.22113 1.2249 -1.169 1.267 c-1.1321 0.050236 -2.265 0.078984 -3.398 0.11262 c-0.28758 0.0085156 -0.57596 0.0012109 -0.93852 0.0012109 l0 7.6058 c0.26328 0 0.53916 0.0012109 0.81456 0 c1.909 -0.0089064 3.8184 -0.0085156 5.7272 -0.033633 c0.61284 -0.008086 0.98508 0.25558 1.1442 0.83036 c0.12922 0.46664 0.28516 0.93284 0.34793 1.41 c0.10328 0.7842 -0.30137 1.3164 -1.0864 1.4529 c-0.41152 0.07168 -0.83804 0.067228 -1.2581 0.078164 c-2.8811 0.07332 -5.7624 0.13488 -8.6428 0.21426 c-1.2788 0.035234 -1.6579 -0.21387 -1.7571 -1.4918 c-0.079804 -1.028 -0.011367 -2.0694 0.018203 -3.104 c0.10816 -3.7544 0.28558 -7.508 0.31637 -11.263 c0.013359 -1.6437 -0.2325 -3.2931 -0.4176 -4.934 c-0.20457 -1.8142 -0.1827 -3.6179 0.052656 -5.4244 c0.1527 -1.1722 0.58772 -1.5477 1.7822 -1.5696 c2.8808 -0.052656 5.7612 -0.1134 8.6412 -0.18226 c1.7867 -0.042928 1.7863 -0.052228 1.8045 1.6899 c0.0048436 0.48604 0.0032422 0.97212 0.015781 1.4578 c0.01457 0.57196 -0.28438 0.92596 -0.8 1.0746 c-0.401 0.11586 -0.82348 0.19891 -1.2394 0.21512 c-1.4866 0.05832 -2.9747 0.083436 -4.4624 0.11746 z M22.9448 31.334 c-0.0073048 1.5817 0.07582 3.1639 0.11957 4.7884 c0.8652 0 1.6048 -0.0064844 2.344 0.0016016 c0.93768 0.010117 1.8786 -0.010938 2.8119 0.061172 c1.0106 0.078164 1.2962 0.43868 1.2974 1.4282 c0.0020312 1.4144 -0.37711 1.8576 -1.811 1.954 c-2.2642 0.1523 -4.5308 0.19726 -6.79 -0.10125 c-0.28758 -0.038086 -0.57476 -0.096836 -0.85388 -0.17582 c-0.81376 -0.23047 -1.0864 -0.52172 -1.0612 -1.3849 c0.040116 -1.3906 0.19484 -2.7774 0.23942 -4.168 c0.07168 -2.2318 0.10691 -4.4652 0.13121 -6.6984 c0.017812 -1.6502 -0.016602 -3.3008 -0.0089064 -4.9512 c0.011758 -2.4943 0.034024 -4.9892 0.064804 -7.4836 c0.0068752 -0.54924 0.061952 -1.0985 0.1057 -1.647 c0.031172 -0.38926 0.2268 -0.689 0.59944 -0.80928 c0.80244 -0.25883 1.621 -0.2734 2.336 0.20254 c0.28598 0.19039 0.48688 0.58208 0.6084 0.92432 c0.11504 0.32402 0.10207 0.70316 0.09922 1.0576 c-0.026328 3.3684 -0.052656 6.7368 -0.098828 10.105 c-0.031602 2.2991 -0.12191 4.5976 -0.13324 6.8964 z M33.5263 25.93 c0.063592 -0.00082032 0.12676 -0.0016406 0.19035 -0.0024609 c-0.060744 -2.0054 -0.15551 -4.0108 -0.17254 -6.0168 c-0.016602 -1.9414 0.030391 -3.8841 0.082656 -5.8256 c0.025117 -0.93408 0.13527 -1.0321 1.0511 -1.201 c0.47716 -0.087892 0.9608 -0.14664 1.4444 -0.18957 c1.0333 -0.091524 1.3156 0.091952 1.3877 1.1143 c0.097616 1.3861 0.1057 2.7787 0.13973 4.1692 c0.072108 2.9435 0.13207 5.8872 0.20418 8.8304 c0.08426 3.4296 0.20215 6.8588 0.25398 10.289 c0.023906 1.5785 -1.0888 2.5182 -2.6531 2.2185 c-1.907 -0.36535 -1.9082 -0.31715 -1.9212 -2.2233 c-0.025508 -3.7208 -0.0072656 -7.442 -0.0072656 -11.163 z M47.493199999999995 39.47396 c-2.5122 -0.46864 -5.8736 -3.186 -5.3104 -6.924 c0.96644 -0.145 1.9126 -0.34024 2.8682 -0.41396 c0.86036 -0.066836 1.0183 0.16527 1.2391 0.98996 c0.13812 0.51644 0.33418 1.0734 0.6732 1.4671 c0.51404 0.59664 1.2528 0.79716 2.0394 0.54564 c0.78908 -0.25234 1.2508 -0.82876 1.3209 -1.6389 c0.14742 -1.7085 0.30379 -3.4203 0.33578 -5.1328 c0.017812 -0.9604 -0.17258 -1.9309 -0.33582 -2.8856 c-0.074532 -0.43584 -0.26289 -0.87124 -0.48528 -1.2576 c-0.27949 -0.48604 -0.6542 -0.59988 -1.1601 -0.34226 c-0.82024 0.4172 -1.542 0.9146 -1.6239 1.9908 c-0.065196 0.85752 -0.2568 1.0009 -1.0859 1.0576 c-0.61284 0.042108 -1.2318 0.056288 -1.8446 0.020234 c-0.75016 -0.043752 -0.95148 -0.27016 -0.98916 -1.0308 c-0.027148 -0.54964 -0.010547 -1.1013 -0.018633 -1.6518 c-0.04496 -3.1408 -0.091132 -6.2812 -0.13648 -9.422 c-0.0076952 -0.51804 -0.025938 -1.0365 -0.018633 -1.5546 c0.015781 -1.0936 0.17375 -1.2164 1.2301 -1.2306 c3.0756 -0.042108 6.1508 -0.10894 9.226 -0.16644 c0.25922 -0.0048436 0.51804 -0.021445 0.77728 -0.019844 c0.82348 0.0044532 1.1451 0.23859 1.1645 1.0738 c0.020234 0.86844 -0.074532 1.7442 -0.18551 2.6082 c-0.024297 0.18715 -0.30703 0.416 -0.51728 0.48648 c-0.29648 0.099648 -0.63672 0.090352 -0.95832 0.091564 c-1.9114 0.0068752 -3.8229 0.0036328 -5.734 0.0036328 l-1.0507 0 c-0.17297 1.8244 0.0040236 3.5479 0.10328 5.4 c0.30461 -0.20051 0.49416 -0.36656 0.71452 -0.4626 c0.79512 -0.34754 1.5732 -0.80568 2.408 -0.9762 c1.6328 -0.33297 2.9828 0.27219 4.0016 1.6008 c0.93488 1.2188 1.2127 2.6511 1.2115 4.1212 c-0.0012109 1.6482 -0.10938 3.2996 -0.23898 4.944 c-0.11664 1.4813 -0.27582 2.9634 -0.50672 4.4308 c-0.26894 1.7081 -1.3188 2.8261 -2.8836 3.5143 c-1.3537 0.59584 -2.7338 1.0418 -4.2292 0.76352 z"></path></g></svg>